<svg width="412" height="635" viewBox="0 0 412 635" fill="none" xmlns="http://www.w3.org/2000/svg">
<g filter="url(#filter0_f_492_7037)">
<circle cx="-198" cy="25" r="410" fill="url(#paint0_linear_492_7037)"/>
</g>
<g filter="url(#filter1_f_492_7037)">
<circle cx="-57" cy="-134" r="300" fill="url(#paint1_linear_492_7037)"/>
</g>
<g filter="url(#filter2_f_492_7037)">
<path d="M107.705 415.888C96.6677 404.437 81.9512 396.648 75.9727 394.185L-39 330L80.5712 391.415C81.9509 391.723 86.1818 392.708 92.0684 394.185C94.8278 399.727 101.726 402.959 105.865 401.574C109.176 400.465 113.07 403.882 114.603 405.73C115.523 409.578 115.431 416.997 107.705 415.888Z" fill="url(#paint2_linear_492_7037)"/>
<path d="M107.705 415.888C96.6677 404.437 81.9512 396.648 75.9727 394.185L-39 330L80.5712 391.415C81.9509 391.723 86.1818 392.708 92.0684 394.185C94.8278 399.727 101.726 402.959 105.865 401.574C109.176 400.465 113.07 403.882 114.603 405.73C115.523 409.578 115.431 416.997 107.705 415.888Z" stroke="url(#paint3_linear_492_7037)"/>
</g>
<defs>
<filter id="filter0_f_492_7037" x="-808" y="-585" width="1220" height="1220" filterUnits="userSpaceOnUse" color-interpolation-filters="sRGB">
<feFlood flood-opacity="0" result="BackgroundImageFix"/>
<feBlend mode="normal" in="SourceGraphic" in2="BackgroundImageFix" result="shape"/>
<feGaussianBlur stdDeviation="100" result="effect1_foregroundBlur_492_7037"/>
</filter>
<filter id="filter1_f_492_7037" x="-457" y="-534" width="800" height="800" filterUnits="userSpaceOnUse" color-interpolation-filters="sRGB">
<feFlood flood-opacity="0" result="BackgroundImageFix"/>
<feBlend mode="normal" in="SourceGraphic" in2="BackgroundImageFix" result="shape"/>
<feGaussianBlur stdDeviation="50" result="effect1_foregroundBlur_492_7037"/>
</filter>
<filter id="filter2_f_492_7037" x="-53" y="316" width="182" height="114" filterUnits="userSpaceOnUse" color-interpolation-filters="sRGB">
<feFlood flood-opacity="0" result="BackgroundImageFix"/>
<feBlend mode="normal" in="SourceGraphic" in2="BackgroundImageFix" result="shape"/>
<feGaussianBlur stdDeviation="7" result="effect1_foregroundBlur_492_7037"/>
</filter>
<linearGradient id="paint0_linear_492_7037" x1="-198" y1="-385" x2="-198" y2="435" gradientUnits="userSpaceOnUse">
<stop stop-color="#FF7BCA"/>
<stop offset="1" stop-color="#FFC56F" stop-opacity="0.46"/>
</linearGradient>
<linearGradient id="paint1_linear_492_7037" x1="-57" y1="-434" x2="-57" y2="166" gradientUnits="userSpaceOnUse">
<stop stop-color="#F22FB0"/>
<stop offset="1" stop-color="#F58A25" stop-opacity="0"/>
<stop offset="1" stop-color="#7061A3"/>
</linearGradient>
<linearGradient id="paint2_linear_492_7037" x1="121.079" y1="372.372" x2="-47.6791" y2="372.372" gradientUnits="userSpaceOnUse">
<stop stop-color="#C69FB3"/>
<stop offset="1" stop-color="#FBAB35"/>
<stop offset="1" stop-color="#BE405A"/>
</linearGradient>
<linearGradient id="paint3_linear_492_7037" x1="121.079" y1="372.372" x2="-47.6791" y2="372.372" gradientUnits="userSpaceOnUse">
<stop stop-color="#E82A83"/>
<stop offset="1" stop-color="#FBAB35"/>
<stop offset="1" stop-color="#FBAB35"/>
</linearGradient>
</defs>
</svg>
