<svg width="32" height="32" viewBox="0 0 32 32" fill="none" xmlns="http://www.w3.org/2000/svg">
<circle cx="16" cy="16" r="16" fill="white"/>
<path fill-rule="evenodd" clip-rule="evenodd" d="M9.06689 10.1333V22.006H10.6146V16.6958H17.4294V22.006H18.9771V10.1333H17.4294V15.4204H10.6146V10.1333H9.06689ZM23.0555 11.5959C23.0555 12.3799 22.3713 13.0155 21.5273 13.0155C20.6833 13.0155 19.9991 12.3799 19.9991 11.5959C19.9991 10.8119 20.6833 10.1763 21.5273 10.1763C22.3713 10.1763 23.0555 10.8119 23.0555 11.5959ZM21.5701 10.6496L21.3206 11.3629H20.5131L21.1663 11.8038L20.9168 12.5172L21.5701 12.0763L22.2233 12.5172L21.9738 11.8038L22.6271 11.3629H21.8196L21.5701 10.6496Z" fill="black"/>
</svg>
